<svg xmlns="http://www.w3.org/2000/svg" height="240" width="462" viewBox="-105 -120 462 240" ><circle cx="0" cy="0" r="100" stroke="black" stroke-width="2" fill="white" /><path d="M -0.00 90.00 A 90 90 0 0 1 -90.00 -0.00" stroke="black" stroke-width="2" fill="white" /><circle cx="0" cy="0" r="80" stroke="black" stroke-width="2" fill="white" /><path d="M -0.00 70.00 A 70 70 0 1 1 70.00 0.00" stroke="black" stroke-width="2" fill="white" /><circle cx="0" cy="0" r="60" stroke="black" stroke-width="2" fill="white" /><path d="M 50.00 0.00 A 50 50 0 1 1 -50.00 -0.00" stroke="black" stroke-width="2" fill="white" /><circle cx="0" cy="0" r="40" stroke="black" stroke-width="2" fill="white" /><path d="M -30.00 -0.00 A 30 30 0 1 1 -0.00 30.00" stroke="black" stroke-width="2" fill="white" /><line x1="0" x2="0" y1="100" y2="90" stroke="black" stroke-width="2" /><line x1="-90" x2="-70" y1="0" y2="0" stroke="black" stroke-width="2" /><line x1="0" x2="0" y1="70" y2="60" stroke="black" stroke-width="2" /><line x1="70" x2="50" y1="0" y2="0" stroke="black" stroke-width="2" /><line x1="-50" x2="-30" y1="0" y2="0" stroke="black" stroke-width="2" /><line x1="0" x2="0" y1="30" y2="0" stroke="black" stroke-width="2" /><circle cx="0" cy="100" r="5" stroke="black" stroke-width="2" fill="white" /><circle cx="-80" cy="0" r="5" stroke="black" stroke-width="2" fill="white" /><circle cx="0" cy="60" r="5" stroke="black" stroke-width="2" fill="white" /><circle cx="60" cy="0" r="5" stroke="black" stroke-width="2" fill="white" /><circle cx="-40" cy="0" r="5" stroke="black" stroke-width="2" fill="white" /><circle fill="black" cx="0" cy="0" r="10" stroke="black" stroke-width="2" /><circle cx="250" cy="0" r="100" stroke="black" stroke-width="2" fill="white" /><path d="M 250 115 L 150 -58 L 350 -57 Z" stroke="black" stroke-width="2" fill="white" /><line x1="250" x2="250" y1="0" y2="115" stroke="black" stroke-width="2" /><line x1="250" x2="352" y1="0" y2="-58" stroke="black" stroke-width="2" /><line x1="250" x2="149" y1="0" y2="-58" stroke="black" stroke-width="2" /><path d="M 250 -115 L 350 58 L 150 58 Z" stroke="black" stroke-width="2" fill="white" /><circle cx="250" cy="0" r="58" stroke="black" stroke-width="2" fill="white" /></svg>